# xmcd
#
# Track frame offsets:
#	150
#	12472
#	36353
#	66092
#	98974
#	124842
#	140638
#	163146
#	194564
#	222579
#	245241
#	251284
#	268186
#	294451
#
# Disc length: 4211 seconds
#
# Revision: 0
# Processed by: cddbd v1.4PL0 Copyright (c) Steve Scherf et al.
# Submitted via: EasyCDDAExtractor 4.5.0.2
#
DISCID=e610710e
DTITLE=Various Artist - Blues
DYEAR=1900
DGENRE=
TTITLE0=Johhny be good
TTITLE1=You done lost your good thing now
TTITLE2=Rock me baby
TTITLE3=Stormy monday blues
TTITLE4=Crying
TTITLE5=Friends
TTITLE6=Motorcycle driver
TTITLE7=New blues
TTITLE8=Rubina's blue sky hapiness
TTITLE9=Summer song
TTITLE10=Tears in the rain
TTITLE11=The extremist
TTITLE12=War
TTITLE13=Why
EXTD=
EXTT0=
EXTT1=
EXTT2=
EXTT3=
EXTT4=
EXTT5=
EXTT6=
EXTT7=
EXTT8=
EXTT9=
EXTT10=
EXTT11=
EXTT12=
EXTT13=
PLAYORDER=
